<svg id="Icon_-_chevron_right" data-name="Icon - chevron right" xmlns="http://www.w3.org/2000/svg" width="24" height="24" viewBox="0 0 24 24">
  <rect id="Rectangle_64" data-name="Rectangle 64" width="24" height="24" fill="#607d8b" opacity="0"/>
  <path id="Union_11" data-name="Union 11" d="M30.707-3.565a1,1,0,0,1,0-1.414l4.949-4.95-4.949-4.95a1,1,0,0,1,0-1.414,1,1,0,0,1,1.414,0l5.657,5.656a1,1,0,0,1,.293.707,1,1,0,0,1-.293.707L32.121-3.565a1,1,0,0,1-.707.293A1,1,0,0,1,30.707-3.565Z" transform="translate(-22.071 21.929)" fill="#607d8b"/>
</svg>
